<?xml version="1.0" encoding="UTF-8"?>
<svg width="59px" height="35px" viewBox="0 0 59 35" version="1.1" xmlns="http://www.w3.org/2000/svg" xmlns:xlink="http://www.w3.org/1999/xlink">
    <!-- Generator: Sketch 64 (93537) - https://sketch.com -->
    <title>Mist</title>
    <desc>Created with Sketch.</desc>
    <g id="Page-3" stroke="none" stroke-width="1" fill="none" fill-rule="evenodd">
        <g id="NTS-3---Weather-Icon-Assets" transform="translate(-673.000000, -51.000000)">
            <g id="Mist" transform="translate(673.000000, 51.000000)">
                <path d="M49,19.3816223 C49,25.1830327 44.5247304,30 38.9994937,30 L18.9994937,30 C13.4742571,30 9,25.3499415 9,19.5485311 C9,16.6504837 10.1198299,14.0501081 11.9291753,12.1492611 C13.0692553,10.9521953 14.479674,10.0570538 16.0541184,9.54782239 C16.5846707,4.26521138 20.8341518,0 25.9999494,0 C31.0138713,0 35.164127,3.66774159 35.8900926,8.76430774 L38.9994937,8.76430774 C44.5247304,8.76430774 49,13.5802119 49,19.3816223" id="Fill-1" fill="#3DCDEE"></path>
                <g transform="translate(0.000000, 3.000000)" fill="#C3D0D6" fill-rule="nonzero" id="Path">
                    <path d="M40.9032221,3 L33.115254,3 C32.4458624,2.92222645 31.9529494,2.25557658 32.0035744,1.49648712 C31.9564698,0.740027328 32.4484484,0.07775052 33.115254,0 L40.9032221,0 C41.5625571,0.0881849847 42.0440176,0.747350297 41.9962702,1.49648712 C42.0475057,2.24824366 41.5651372,2.91175261 40.9032221,3 Z"></path>
                    <path d="M28.104682,3 L6.89531804,3 C6.35793519,2.92222645 5.96222809,2.25557658 6.00286948,1.49648712 C5.96505425,0.740027328 6.3600112,0.07775052 6.89531804,0 L28.104682,0 C28.6420648,0.0777735502 29.0377719,0.744423423 28.9971305,1.50351288 C29.0349457,2.25997267 28.6399888,2.92224948 28.104682,3 L28.104682,3 Z"></path>
                    <path d="M46.104226,9 L19.895774,9 C19.3581175,8.92222645 18.9622089,8.25557658 19.0028709,7.49648712 C18.9650365,6.74002733 19.3601946,6.07775052 19.895774,6 L46.104226,6 C46.6398054,6.07775052 47.0349635,6.74002733 46.9971291,7.49648712 C47.0377911,8.25557658 46.6418825,8.92222645 46.104226,9 Z"></path>
                    <path d="M48.9974917,31.9964826 L9.14953287,31.9964826 C8.74846998,32.0347681 8.36554457,31.7582081 8.15666196,31.2794019 C7.94777935,30.8005958 7.94777935,30.1994042 8.15666196,29.7205981 C8.36554457,29.2417919 8.74846998,28.9652319 9.14953287,29.0035174 L48.9974917,29.0035174 C49.5619081,29.0573967 50,29.7113532 50,30.5 C50,31.2886468 49.5619081,31.9426033 48.9974917,31.9964826 Z"></path>
                    <path d="M30.9256354,26 L1.07436461,26 C0.481009418,26 0,25.3284271 0,24.5 C0,23.6715729 0.481009418,23 1.07436461,23 L30.9256354,23 C31.5189906,23 32,23.6715729 32,24.5 C32,25.3284271 31.5189906,26 30.9256354,26 Z"></path>
                    <path d="M57.9142066,26 L49.0857934,26 C48.4861262,26 48,25.3284271 48,24.5 C48,23.6715729 48.4861262,23 49.0857934,23 L57.9142066,23 C58.5138738,23 59,23.6715729 59,24.5 C59,25.3284271 58.5138738,26 57.9142066,26 Z"></path>
                </g>
            </g>
        </g>
    </g>
</svg>